M48
;GenerationSoftware,Autodesk,EAGLE,9.6.2*%
;CreationDate,2022-09-05T20:40:40Z*%
FMAT,2
ICI,OFF
METRIC,TZ,000.000
T6C0.300
T5C0.350
T4C0.400
T3C0.650
T2C1.016
T1C1.200
%
G90
M71
T1
X1000Y19200
X1000Y12400
T2
X13970Y1270
X21590Y1270
X39370Y21530
X44450Y1270
X44450Y21530
X6350Y1270
X8890Y1270
X11430Y1270
X3800Y1300
X16510Y1270
X19050Y1270
X24130Y1270
X26670Y1270
X29210Y1270
X31750Y1270
X34290Y1270
X36830Y1270
X39370Y1270
X41910Y1270
X41910Y21530
X6350Y21530
X8890Y21530
X11430Y21530
X13970Y21530
X16510Y21530
X19050Y21530
X21590Y21530
X24130Y21530
X26670Y21530
X29210Y21530
X31750Y21530
X34290Y21530
X36830Y21530
T3
X2655Y4810
X2655Y10590
T4
X3185Y12018
X-995Y12018
X-995Y3382
X3185Y3382
T5
X5850Y18250
T6
X23150Y11900
X27150Y13050
X30825Y17200
X26950Y4150
X30900Y12400
X35700Y5000
X23600Y16000
X32750Y14625
X32750Y15850
X34525Y18075
X31225Y5650
X33200Y8925
X45400Y10200
X45800Y9600
X46200Y9000
X46600Y8200
X46600Y7500
X48500Y7500
X48500Y9400
X47900Y9700
X47500Y10200
X47100Y10700
X46500Y11000
X45700Y14800
X46500Y14800
X47250Y14800
X49200Y15500
X49600Y15000
X49800Y14300
X49800Y13600
X49600Y12900
X49600Y12100
X49600Y11200
X48200Y11000
X46900Y13300
X48450Y13400
X45650Y13450
X44550Y14950
X42750Y13100
X47250Y15550
X46800Y18750
X49750Y18700
X46100Y4600
X49150Y4500
X47550Y6550
X49450Y8750
X9250Y13650
X6800Y9050
X8400Y6050
X8400Y5200
X9900Y5450
X15600Y6350
X12650Y8050
X13850Y8100
X14400Y8100
X15600Y6900
X17350Y6200
X20950Y6350
X21950Y10000
X19600Y12650
X8800Y16400
X4850Y14550
X3750Y19150
X1900Y16850
X1000Y7700
X150Y8550
X1850Y8550
X1850Y6850
X150Y6850
X10500Y6700
X10200Y3150
X7850Y3000
X4600Y4600
X6050Y10900
X-500Y10850
X-1100Y4550
X7850Y9900
X9950Y6700
X30750Y9050
X44653Y13183
X38710Y20498
X22550Y8250
X27400Y5200
X28850Y10950
X19100Y8240
X17200Y5400
X7700Y10850
X17300Y4150
X19850Y10500
X6100Y4950
X7600Y8100
X17100Y19050
X13750Y15750
X37750Y17600
X22708Y13259
X25527Y14885
X38250Y18250
X22174Y15850
X31256Y18509
X31900Y18275
X11100Y19700
X32250Y17700
X29500Y7050
X45200Y17950
X33757Y5334
X34671Y4420
X11100Y12300
X16600Y13526
X38786Y17374
X35071Y17549
X36250Y4550
X36750Y5000
X32750Y5150
X30709Y17978
X35509Y21031
X29513Y15850
X35746Y17700
X36450Y17575
X29465Y5600
X29978Y4062
X30559Y4409
X31069Y3975
X31750Y5150
X32250Y4700
X37800Y5000
X35231Y5460
X25070Y19050
X41200Y5550
X39319Y5639
X40691Y8992
X41910Y5486
X28700Y14900
X28750Y9410
X29196Y7950
X22685Y15365
X31090Y14249
X29200Y8900
X33147Y12954
X5850Y19550
X26950Y14750
X6350Y11650
X27350Y15900
X5550Y11650
X37336Y4536
X33860Y17477
X4550Y7450
X4700Y8106
X33425Y15875
X45680Y11650
X24324Y16028
X25700Y15880
X35483Y18721
X9250Y14800
X20422Y18517
X17983Y16078
X12400Y12831
X1200Y2450
X4750Y6470
X12100Y13650
X14950Y10300
X-600Y1750
X20400Y9500
X27100Y9750
X18800Y15700
X19100Y9650
X21800Y11300
X26900Y7000
X18800Y4550
X10200Y11900
X35050Y3200
X39050Y9000
X39050Y13750
X33050Y10600
X30850Y10650
X40800Y15000
X37400Y15450
X42600Y10500
X42900Y15050
X43900Y4400
X43050Y7500
X38800Y4950
X48800Y10250
X45750Y12350
X48400Y12450
X45700Y16800
X44500Y17450
X46150Y19350
X22700Y3700
X16650Y3050
X14400Y3300
X21800Y17900
X19300Y19950
X12700Y20400
X37125Y17925
X28000Y18800
X13750Y18350
X18000Y6650
X21300Y15600
X27151Y19026
M30